<svg class="rich-terminal" viewBox="0 0 994 635.5999999999999" xmlns="http://www.w3.org/2000/svg">
    <!-- Generated with Rich https://www.textualize.io -->
    <style>

    @font-face {
        font-family: "Fira Code";
        src: local("FiraCode-Regular"),
                url("https://cdnjs.cloudflare.com/ajax/libs/firacode/6.2.0/woff2/FiraCode-Regular.woff2") format("woff2"),
                url("https://cdnjs.cloudflare.com/ajax/libs/firacode/6.2.0/woff/FiraCode-Regular.woff") format("woff");
        font-style: normal;
        font-weight: 400;
    }
    @font-face {
        font-family: "Fira Code";
        src: local("FiraCode-Bold"),
                url("https://cdnjs.cloudflare.com/ajax/libs/firacode/6.2.0/woff2/FiraCode-Bold.woff2") format("woff2"),
                url("https://cdnjs.cloudflare.com/ajax/libs/firacode/6.2.0/woff/FiraCode-Bold.woff") format("woff");
        font-style: bold;
        font-weight: 700;
    }

    .terminal-SNAPSHOT-matrix {
        font-family: Fira Code, monospace;
        font-size: 20px;
        line-height: 24.4px;
        font-variant-east-asian: full-width;
    }

    .terminal-SNAPSHOT-title {
        font-size: 18px;
        font-weight: bold;
        font-family: arial;
    }

    .terminal-SNAPSHOT-r1 { fill: #c5c8c6 }
.terminal-SNAPSHOT-r2 { fill: #d9e1e8;font-weight: bold }
.terminal-SNAPSHOT-r3 { fill: #48c6dc;font-weight: bold }
.terminal-SNAPSHOT-r4 { fill: #48c6dc }
.terminal-SNAPSHOT-r5 { fill: #0a121b }
.terminal-SNAPSHOT-r6 { fill: #efaa4b }
.terminal-SNAPSHOT-r7 { fill: #e1e6e8;font-weight: bold }
.terminal-SNAPSHOT-r8 { fill: #727476;font-weight: bold }
.terminal-SNAPSHOT-r9 { fill: #727476 }
.terminal-SNAPSHOT-r10 { fill: #318fa7 }
.terminal-SNAPSHOT-r11 { fill: #3c6471 }
.terminal-SNAPSHOT-r12 { fill: #f0aa4b;font-weight: bold }
.terminal-SNAPSHOT-r13 { fill: #f6cf78;font-weight: bold }
.terminal-SNAPSHOT-r14 { fill: #49c6dc }
.terminal-SNAPSHOT-r15 { fill: #3f8e9f }
.terminal-SNAPSHOT-r16 { fill: #d9e1e8 }
.terminal-SNAPSHOT-r17 { fill: #9d9fa1 }
.terminal-SNAPSHOT-r18 { fill: #9fa2a5 }
    </style>

    <defs>
    <clipPath id="terminal-SNAPSHOT-clip-terminal">
      <rect x="0" y="0" width="975.0" height="584.5999999999999" />
    </clipPath>
    <clipPath id="terminal-SNAPSHOT-line-0">
    <rect x="0" y="1.5" width="976" height="24.65"/>
            </clipPath>
<clipPath id="terminal-SNAPSHOT-line-1">
    <rect x="0" y="25.9" width="976" height="24.65"/>
            </clipPath>
<clipPath id="terminal-SNAPSHOT-line-2">
    <rect x="0" y="50.3" width="976" height="24.65"/>
            </clipPath>
<clipPath id="terminal-SNAPSHOT-line-3">
    <rect x="0" y="74.7" width="976" height="24.65"/>
            </clipPath>
<clipPath id="terminal-SNAPSHOT-line-4">
    <rect x="0" y="99.1" width="976" height="24.65"/>
            </clipPath>
<clipPath id="terminal-SNAPSHOT-line-5">
    <rect x="0" y="123.5" width="976" height="24.65"/>
            </clipPath>
<clipPath id="terminal-SNAPSHOT-line-6">
    <rect x="0" y="147.9" width="976" height="24.65"/>
            </clipPath>
<clipPath id="terminal-SNAPSHOT-line-7">
    <rect x="0" y="172.3" width="976" height="24.65"/>
            </clipPath>
<clipPath id="terminal-SNAPSHOT-line-8">
    <rect x="0" y="196.7" width="976" height="24.65"/>
            </clipPath>
<clipPath id="terminal-SNAPSHOT-line-9">
    <rect x="0" y="221.1" width="976" height="24.65"/>
            </clipPath>
<clipPath id="terminal-SNAPSHOT-line-10">
    <rect x="0" y="245.5" width="976" height="24.65"/>
            </clipPath>
<clipPath id="terminal-SNAPSHOT-line-11">
    <rect x="0" y="269.9" width="976" height="24.65"/>
            </clipPath>
<clipPath id="terminal-SNAPSHOT-line-12">
    <rect x="0" y="294.3" width="976" height="24.65"/>
            </clipPath>
<clipPath id="terminal-SNAPSHOT-line-13">
    <rect x="0" y="318.7" width="976" height="24.65"/>
            </clipPath>
<clipPath id="terminal-SNAPSHOT-line-14">
    <rect x="0" y="343.1" width="976" height="24.65"/>
            </clipPath>
<clipPath id="terminal-SNAPSHOT-line-15">
    <rect x="0" y="367.5" width="976" height="24.65"/>
            </clipPath>
<clipPath id="terminal-SNAPSHOT-line-16">
    <rect x="0" y="391.9" width="976" height="24.65"/>
            </clipPath>
<clipPath id="terminal-SNAPSHOT-line-17">
    <rect x="0" y="416.3" width="976" height="24.65"/>
            </clipPath>
<clipPath id="terminal-SNAPSHOT-line-18">
    <rect x="0" y="440.7" width="976" height="24.65"/>
            </clipPath>
<clipPath id="terminal-SNAPSHOT-line-19">
    <rect x="0" y="465.1" width="976" height="24.65"/>
            </clipPath>
<clipPath id="terminal-SNAPSHOT-line-20">
    <rect x="0" y="489.5" width="976" height="24.65"/>
            </clipPath>
<clipPath id="terminal-SNAPSHOT-line-21">
    <rect x="0" y="513.9" width="976" height="24.65"/>
            </clipPath>
<clipPath id="terminal-SNAPSHOT-line-22">
    <rect x="0" y="538.3" width="976" height="24.65"/>
            </clipPath>
    </defs>

    <rect fill="#292929" stroke="rgba(255,255,255,0.35)" stroke-width="1" x="1" y="1" width="992" height="633.6" rx="8"/><text class="terminal-SNAPSHOT-title" fill="#c5c8c6" text-anchor="middle" x="496" y="27">OpenLRC&#160;Mac</text>
            <g transform="translate(26,22)">
            <circle cx="0" cy="0" r="7" fill="#ff5f57"/>
            <circle cx="22" cy="0" r="7" fill="#febc2e"/>
            <circle cx="44" cy="0" r="7" fill="#28c840"/>
            </g>

    <g transform="translate(9, 41)" clip-path="url(#terminal-SNAPSHOT-clip-terminal)">
    <rect fill="#111820" x="0" y="1.5" width="24.4" height="24.65" shape-rendering="crispEdges"/><rect fill="#111820" x="24.4" y="1.5" width="219.6" height="24.65" shape-rendering="crispEdges"/><rect fill="#111820" x="244" y="1.5" width="488" height="24.65" shape-rendering="crispEdges"/><rect fill="#111820" x="732" y="1.5" width="48.8" height="24.65" shape-rendering="crispEdges"/><rect fill="#111820" x="780.8" y="1.5" width="122" height="24.65" shape-rendering="crispEdges"/><rect fill="#111820" x="902.8" y="1.5" width="48.8" height="24.65" shape-rendering="crispEdges"/><rect fill="#111820" x="951.6" y="1.5" width="24.4" height="24.65" shape-rendering="crispEdges"/><rect fill="#111820" x="0" y="25.9" width="976" height="24.65" shape-rendering="crispEdges"/><rect fill="#0b0f14" x="0" y="50.3" width="475.8" height="24.65" shape-rendering="crispEdges"/><rect fill="#0b0f14" x="475.8" y="50.3" width="12.2" height="24.65" shape-rendering="crispEdges"/><rect fill="#0b0f14" x="488" y="50.3" width="24.4" height="24.65" shape-rendering="crispEdges"/><rect fill="#1d4550" x="512.4" y="50.3" width="12.2" height="24.65" shape-rendering="crispEdges"/><rect fill="#1d4550" x="524.6" y="50.3" width="414.8" height="24.65" shape-rendering="crispEdges"/><rect fill="#1d4550" x="939.4" y="50.3" width="12.2" height="24.65" shape-rendering="crispEdges"/><rect fill="#0b0f14" x="951.6" y="50.3" width="24.4" height="24.65" shape-rendering="crispEdges"/><rect fill="#0b0f14" x="0" y="74.7" width="24.4" height="24.65" shape-rendering="crispEdges"/><rect fill="#0b0f14" x="24.4" y="74.7" width="427" height="24.65" shape-rendering="crispEdges"/><rect fill="#0b0f14" x="451.4" y="74.7" width="24.4" height="24.65" shape-rendering="crispEdges"/><rect fill="#0b0f14" x="475.8" y="74.7" width="12.2" height="24.65" shape-rendering="crispEdges"/><rect fill="#0b0f14" x="488" y="74.7" width="24.4" height="24.65" shape-rendering="crispEdges"/><rect fill="#1d4550" x="512.4" y="74.7" width="12.2" height="24.65" shape-rendering="crispEdges"/><rect fill="#1d4550" x="524.6" y="74.7" width="24.4" height="24.65" shape-rendering="crispEdges"/><rect fill="#1d4550" x="549" y="74.7" width="97.6" height="24.65" shape-rendering="crispEdges"/><rect fill="#1d4550" x="646.6" y="74.7" width="268.4" height="24.65" shape-rendering="crispEdges"/><rect fill="#1d4550" x="915" y="74.7" width="24.4" height="24.65" shape-rendering="crispEdges"/><rect fill="#1d4550" x="939.4" y="74.7" width="12.2" height="24.65" shape-rendering="crispEdges"/><rect fill="#0b0f14" x="951.6" y="74.7" width="24.4" height="24.65" shape-rendering="crispEdges"/><rect fill="#0b0f14" x="0" y="99.1" width="24.4" height="24.65" shape-rendering="crispEdges"/><rect fill="#0b0f14" x="24.4" y="99.1" width="427" height="24.65" shape-rendering="crispEdges"/><rect fill="#0b0f14" x="451.4" y="99.1" width="24.4" height="24.65" shape-rendering="crispEdges"/><rect fill="#0b0f14" x="475.8" y="99.1" width="12.2" height="24.65" shape-rendering="crispEdges"/><rect fill="#0b0f14" x="488" y="99.1" width="24.4" height="24.65" shape-rendering="crispEdges"/><rect fill="#1d4550" x="512.4" y="99.1" width="12.2" height="24.65" shape-rendering="crispEdges"/><rect fill="#1d4550" x="524.6" y="99.1" width="24.4" height="24.65" shape-rendering="crispEdges"/><rect fill="#1d4550" x="549" y="99.1" width="366" height="24.65" shape-rendering="crispEdges"/><rect fill="#1d4550" x="915" y="99.1" width="24.4" height="24.65" shape-rendering="crispEdges"/><rect fill="#1d4550" x="939.4" y="99.1" width="12.2" height="24.65" shape-rendering="crispEdges"/><rect fill="#0b0f14" x="951.6" y="99.1" width="24.4" height="24.65" shape-rendering="crispEdges"/><rect fill="#0b0f14" x="0" y="123.5" width="24.4" height="24.65" shape-rendering="crispEdges"/><rect fill="#0b0f14" x="24.4" y="123.5" width="427" height="24.65" shape-rendering="crispEdges"/><rect fill="#0b0f14" x="451.4" y="123.5" width="24.4" height="24.65" shape-rendering="crispEdges"/><rect fill="#0b0f14" x="475.8" y="123.5" width="12.2" height="24.65" shape-rendering="crispEdges"/><rect fill="#0b0f14" x="488" y="123.5" width="24.4" height="24.65" shape-rendering="crispEdges"/><rect fill="#1d4550" x="512.4" y="123.5" width="12.2" height="24.65" shape-rendering="crispEdges"/><rect fill="#1d4550" x="524.6" y="123.5" width="414.8" height="24.65" shape-rendering="crispEdges"/><rect fill="#1d4550" x="939.4" y="123.5" width="12.2" height="24.65" shape-rendering="crispEdges"/><rect fill="#0b0f14" x="951.6" y="123.5" width="24.4" height="24.65" shape-rendering="crispEdges"/><rect fill="#0b0f14" x="0" y="147.9" width="24.4" height="24.65" shape-rendering="crispEdges"/><rect fill="#0b0f14" x="24.4" y="147.9" width="427" height="24.65" shape-rendering="crispEdges"/><rect fill="#0b0f14" x="451.4" y="147.9" width="24.4" height="24.65" shape-rendering="crispEdges"/><rect fill="#0b0f14" x="475.8" y="147.9" width="12.2" height="24.65" shape-rendering="crispEdges"/><rect fill="#0b0f14" x="488" y="147.9" width="24.4" height="24.65" shape-rendering="crispEdges"/><rect fill="#1c1f23" x="512.4" y="147.9" width="12.2" height="24.65" shape-rendering="crispEdges"/><rect fill="#1c1f23" x="524.6" y="147.9" width="414.8" height="24.65" shape-rendering="crispEdges"/><rect fill="#1c1f23" x="939.4" y="147.9" width="12.2" height="24.65" shape-rendering="crispEdges"/><rect fill="#0b0f14" x="951.6" y="147.9" width="24.4" height="24.65" shape-rendering="crispEdges"/><rect fill="#0b0f14" x="0" y="172.3" width="24.4" height="24.65" shape-rendering="crispEdges"/><rect fill="#0b0f14" x="24.4" y="172.3" width="427" height="24.65" shape-rendering="crispEdges"/><rect fill="#0b0f14" x="451.4" y="172.3" width="24.4" height="24.65" shape-rendering="crispEdges"/><rect fill="#0b0f14" x="475.8" y="172.3" width="12.2" height="24.65" shape-rendering="crispEdges"/><rect fill="#0b0f14" x="488" y="172.3" width="24.4" height="24.65" shape-rendering="crispEdges"/><rect fill="#1c1f23" x="512.4" y="172.3" width="12.2" height="24.65" shape-rendering="crispEdges"/><rect fill="#1c1f23" x="524.6" y="172.3" width="24.4" height="24.65" shape-rendering="crispEdges"/><rect fill="#1c1f23" x="549" y="172.3" width="97.6" height="24.65" shape-rendering="crispEdges"/><rect fill="#1c1f23" x="646.6" y="172.3" width="268.4" height="24.65" shape-rendering="crispEdges"/><rect fill="#1c1f23" x="915" y="172.3" width="24.4" height="24.65" shape-rendering="crispEdges"/><rect fill="#1c1f23" x="939.4" y="172.3" width="12.2" height="24.65" shape-rendering="crispEdges"/><rect fill="#0b0f14" x="951.6" y="172.3" width="24.4" height="24.65" shape-rendering="crispEdges"/><rect fill="#0b0f14" x="0" y="196.7" width="24.4" height="24.65" shape-rendering="crispEdges"/><rect fill="#0b0f14" x="24.4" y="196.7" width="427" height="24.65" shape-rendering="crispEdges"/><rect fill="#0b0f14" x="451.4" y="196.7" width="24.4" height="24.65" shape-rendering="crispEdges"/><rect fill="#0b0f14" x="475.8" y="196.7" width="12.2" height="24.65" shape-rendering="crispEdges"/><rect fill="#0b0f14" x="488" y="196.7" width="24.4" height="24.65" shape-rendering="crispEdges"/><rect fill="#1c1f23" x="512.4" y="196.7" width="12.2" height="24.65" shape-rendering="crispEdges"/><rect fill="#1c1f23" x="524.6" y="196.7" width="24.4" height="24.65" shape-rendering="crispEdges"/><rect fill="#1c1f23" x="549" y="196.7" width="97.6" height="24.65" shape-rendering="crispEdges"/><rect fill="#1c1f23" x="646.6" y="196.7" width="268.4" height="24.65" shape-rendering="crispEdges"/><rect fill="#1c1f23" x="915" y="196.7" width="24.4" height="24.65" shape-rendering="crispEdges"/><rect fill="#1c1f23" x="939.4" y="196.7" width="12.2" height="24.65" shape-rendering="crispEdges"/><rect fill="#0b0f14" x="951.6" y="196.7" width="24.4" height="24.65" shape-rendering="crispEdges"/><rect fill="#0b0f14" x="0" y="221.1" width="24.4" height="24.65" shape-rendering="crispEdges"/><rect fill="#0b0f14" x="24.4" y="221.1" width="24.4" height="24.65" shape-rendering="crispEdges"/><rect fill="#0b0f14" x="48.8" y="221.1" width="24.4" height="24.65" shape-rendering="crispEdges"/><rect fill="#0b0f14" x="73.2" y="221.1" width="12.2" height="24.65" shape-rendering="crispEdges"/><rect fill="#0b0f14" x="85.4" y="221.1" width="24.4" height="24.65" shape-rendering="crispEdges"/><rect fill="#0b0f14" x="109.8" y="221.1" width="12.2" height="24.65" shape-rendering="crispEdges"/><rect fill="#0b0f14" x="122" y="221.1" width="12.2" height="24.65" shape-rendering="crispEdges"/><rect fill="#0b0f14" x="134.2" y="221.1" width="12.2" height="24.65" shape-rendering="crispEdges"/><rect fill="#0b0f14" x="146.4" y="221.1" width="280.6" height="24.65" shape-rendering="crispEdges"/><rect fill="#0b0f14" x="427" y="221.1" width="24.4" height="24.65" shape-rendering="crispEdges"/><rect fill="#0b0f14" x="451.4" y="221.1" width="24.4" height="24.65" shape-rendering="crispEdges"/><rect fill="#0b0f14" x="475.8" y="221.1" width="12.2" height="24.65" shape-rendering="crispEdges"/><rect fill="#0b0f14" x="488" y="221.1" width="24.4" height="24.65" shape-rendering="crispEdges"/><rect fill="#1c1f23" x="512.4" y="221.1" width="12.2" height="24.65" shape-rendering="crispEdges"/><rect fill="#1c1f23" x="524.6" y="221.1" width="414.8" height="24.65" shape-rendering="crispEdges"/><rect fill="#1c1f23" x="939.4" y="221.1" width="12.2" height="24.65" shape-rendering="crispEdges"/><rect fill="#0b0f14" x="951.6" y="221.1" width="24.4" height="24.65" shape-rendering="crispEdges"/><rect fill="#0b0f14" x="0" y="245.5" width="24.4" height="24.65" shape-rendering="crispEdges"/><rect fill="#0b0f14" x="24.4" y="245.5" width="24.4" height="24.65" shape-rendering="crispEdges"/><rect fill="#0b0f14" x="48.8" y="245.5" width="36.6" height="24.65" shape-rendering="crispEdges"/><rect fill="#0b0f14" x="85.4" y="245.5" width="12.2" height="24.65" shape-rendering="crispEdges"/><rect fill="#0b0f14" x="97.6" y="245.5" width="12.2" height="24.65" shape-rendering="crispEdges"/><rect fill="#0b0f14" x="109.8" y="245.5" width="12.2" height="24.65" shape-rendering="crispEdges"/><rect fill="#0b0f14" x="122" y="245.5" width="12.2" height="24.65" shape-rendering="crispEdges"/><rect fill="#0b0f14" x="134.2" y="245.5" width="12.2" height="24.65" shape-rendering="crispEdges"/><rect fill="#0b0f14" x="146.4" y="245.5" width="12.2" height="24.65" shape-rendering="crispEdges"/><rect fill="#0b0f14" x="158.6" y="245.5" width="268.4" height="24.65" shape-rendering="crispEdges"/><rect fill="#0b0f14" x="427" y="245.5" width="24.4" height="24.65" shape-rendering="crispEdges"/><rect fill="#0b0f14" x="451.4" y="245.5" width="24.4" height="24.65" shape-rendering="crispEdges"/><rect fill="#0b0f14" x="475.8" y="245.5" width="12.2" height="24.65" shape-rendering="crispEdges"/><rect fill="#0b0f14" x="488" y="245.5" width="24.4" height="24.65" shape-rendering="crispEdges"/><rect fill="#111820" x="512.4" y="245.5" width="12.2" height="24.65" shape-rendering="crispEdges"/><rect fill="#111820" x="524.6" y="245.5" width="414.8" height="24.65" shape-rendering="crispEdges"/><rect fill="#111820" x="939.4" y="245.5" width="12.2" height="24.65" shape-rendering="crispEdges"/><rect fill="#0b0f14" x="951.6" y="245.5" width="24.4" height="24.65" shape-rendering="crispEdges"/><rect fill="#0b0f14" x="0" y="269.9" width="24.4" height="24.65" shape-rendering="crispEdges"/><rect fill="#0b0f14" x="24.4" y="269.9" width="24.4" height="24.65" shape-rendering="crispEdges"/><rect fill="#0b0f14" x="48.8" y="269.9" width="24.4" height="24.65" shape-rendering="crispEdges"/><rect fill="#0b0f14" x="73.2" y="269.9" width="12.2" height="24.65" shape-rendering="crispEdges"/><rect fill="#0b0f14" x="85.4" y="269.9" width="12.2" height="24.65" shape-rendering="crispEdges"/><rect fill="#0b0f14" x="97.6" y="269.9" width="12.2" height="24.65" shape-rendering="crispEdges"/><rect fill="#0b0f14" x="109.8" y="269.9" width="12.2" height="24.65" shape-rendering="crispEdges"/><rect fill="#0b0f14" x="122" y="269.9" width="305" height="24.65" shape-rendering="crispEdges"/><rect fill="#0b0f14" x="427" y="269.9" width="24.4" height="24.65" shape-rendering="crispEdges"/><rect fill="#0b0f14" x="451.4" y="269.9" width="24.4" height="24.65" shape-rendering="crispEdges"/><rect fill="#0b0f14" x="475.8" y="269.9" width="12.2" height="24.65" shape-rendering="crispEdges"/><rect fill="#0b0f14" x="488" y="269.9" width="24.4" height="24.65" shape-rendering="crispEdges"/><rect fill="#111820" x="512.4" y="269.9" width="12.2" height="24.65" shape-rendering="crispEdges"/><rect fill="#111820" x="524.6" y="269.9" width="24.4" height="24.65" shape-rendering="crispEdges"/><rect fill="#111820" x="549" y="269.9" width="122" height="24.65" shape-rendering="crispEdges"/><rect fill="#111820" x="671" y="269.9" width="244" height="24.65" shape-rendering="crispEdges"/><rect fill="#111820" x="915" y="269.9" width="24.4" height="24.65" shape-rendering="crispEdges"/><rect fill="#111820" x="939.4" y="269.9" width="12.2" height="24.65" shape-rendering="crispEdges"/><rect fill="#0b0f14" x="951.6" y="269.9" width="24.4" height="24.65" shape-rendering="crispEdges"/><rect fill="#0b0f14" x="0" y="294.3" width="24.4" height="24.65" shape-rendering="crispEdges"/><rect fill="#0b0f14" x="24.4" y="294.3" width="427" height="24.65" shape-rendering="crispEdges"/><rect fill="#0b0f14" x="451.4" y="294.3" width="24.4" height="24.65" shape-rendering="crispEdges"/><rect fill="#0b0f14" x="475.8" y="294.3" width="12.2" height="24.65" shape-rendering="crispEdges"/><rect fill="#0b0f14" x="488" y="294.3" width="24.4" height="24.65" shape-rendering="crispEdges"/><rect fill="#111820" x="512.4" y="294.3" width="12.2" height="24.65" shape-rendering="crispEdges"/><rect fill="#111820" x="524.6" y="294.3" width="24.4" height="24.65" shape-rendering="crispEdges"/><rect fill="#111820" x="549" y="294.3" width="366" height="24.65" shape-rendering="crispEdges"/><rect fill="#111820" x="915" y="294.3" width="24.4" height="24.65" shape-rendering="crispEdges"/><rect fill="#111820" x="939.4" y="294.3" width="12.2" height="24.65" shape-rendering="crispEdges"/><rect fill="#0b0f14" x="951.6" y="294.3" width="24.4" height="24.65" shape-rendering="crispEdges"/><rect fill="#0b0f14" x="0" y="318.7" width="24.4" height="24.65" shape-rendering="crispEdges"/><rect fill="#0b0f14" x="24.4" y="318.7" width="109.8" height="24.65" shape-rendering="crispEdges"/><rect fill="#0b0f14" x="134.2" y="318.7" width="195.2" height="24.65" shape-rendering="crispEdges"/><rect fill="#0b0f14" x="329.4" y="318.7" width="122" height="24.65" shape-rendering="crispEdges"/><rect fill="#0b0f14" x="451.4" y="318.7" width="24.4" height="24.65" shape-rendering="crispEdges"/><rect fill="#0b0f14" x="475.8" y="318.7" width="12.2" height="24.65" shape-rendering="crispEdges"/><rect fill="#0b0f14" x="488" y="318.7" width="24.4" height="24.65" shape-rendering="crispEdges"/><rect fill="#111820" x="512.4" y="318.7" width="12.2" height="24.65" shape-rendering="crispEdges"/><rect fill="#111820" x="524.6" y="318.7" width="414.8" height="24.65" shape-rendering="crispEdges"/><rect fill="#111820" x="939.4" y="318.7" width="12.2" height="24.65" shape-rendering="crispEdges"/><rect fill="#0b0f14" x="951.6" y="318.7" width="24.4" height="24.65" shape-rendering="crispEdges"/><rect fill="#0b0f14" x="0" y="343.1" width="24.4" height="24.65" shape-rendering="crispEdges"/><rect fill="#0b0f14" x="24.4" y="343.1" width="97.6" height="24.65" shape-rendering="crispEdges"/><rect fill="#0b0f14" x="122" y="343.1" width="231.8" height="24.65" shape-rendering="crispEdges"/><rect fill="#0b0f14" x="353.8" y="343.1" width="97.6" height="24.65" shape-rendering="crispEdges"/><rect fill="#0b0f14" x="451.4" y="343.1" width="24.4" height="24.65" shape-rendering="crispEdges"/><rect fill="#0b0f14" x="475.8" y="343.1" width="12.2" height="24.65" shape-rendering="crispEdges"/><rect fill="#0b0f14" x="488" y="343.1" width="24.4" height="24.65" shape-rendering="crispEdges"/><rect fill="#111820" x="512.4" y="343.1" width="12.2" height="24.65" shape-rendering="crispEdges"/><rect fill="#111820" x="524.6" y="343.1" width="414.8" height="24.65" shape-rendering="crispEdges"/><rect fill="#111820" x="939.4" y="343.1" width="12.2" height="24.65" shape-rendering="crispEdges"/><rect fill="#0b0f14" x="951.6" y="343.1" width="24.4" height="24.65" shape-rendering="crispEdges"/><rect fill="#0b0f14" x="0" y="367.5" width="24.4" height="24.65" shape-rendering="crispEdges"/><rect fill="#0b0f14" x="24.4" y="367.5" width="427" height="24.65" shape-rendering="crispEdges"/><rect fill="#0b0f14" x="451.4" y="367.5" width="24.4" height="24.65" shape-rendering="crispEdges"/><rect fill="#0b0f14" x="475.8" y="367.5" width="12.2" height="24.65" shape-rendering="crispEdges"/><rect fill="#0b0f14" x="488" y="367.5" width="24.4" height="24.65" shape-rendering="crispEdges"/><rect fill="#111820" x="512.4" y="367.5" width="12.2" height="24.65" shape-rendering="crispEdges"/><rect fill="#111820" x="524.6" y="367.5" width="24.4" height="24.65" shape-rendering="crispEdges"/><rect fill="#111820" x="549" y="367.5" width="122" height="24.65" shape-rendering="crispEdges"/><rect fill="#111820" x="671" y="367.5" width="244" height="24.65" shape-rendering="crispEdges"/><rect fill="#111820" x="915" y="367.5" width="24.4" height="24.65" shape-rendering="crispEdges"/><rect fill="#111820" x="939.4" y="367.5" width="12.2" height="24.65" shape-rendering="crispEdges"/><rect fill="#0b0f14" x="951.6" y="367.5" width="24.4" height="24.65" shape-rendering="crispEdges"/><rect fill="#0b0f14" x="0" y="391.9" width="24.4" height="24.65" shape-rendering="crispEdges"/><rect fill="#0b0f14" x="24.4" y="391.9" width="427" height="24.65" shape-rendering="crispEdges"/><rect fill="#0b0f14" x="451.4" y="391.9" width="24.4" height="24.65" shape-rendering="crispEdges"/><rect fill="#0b0f14" x="475.8" y="391.9" width="12.2" height="24.65" shape-rendering="crispEdges"/><rect fill="#0b0f14" x="488" y="391.9" width="24.4" height="24.65" shape-rendering="crispEdges"/><rect fill="#111820" x="512.4" y="391.9" width="12.2" height="24.65" shape-rendering="crispEdges"/><rect fill="#111820" x="524.6" y="391.9" width="24.4" height="24.65" shape-rendering="crispEdges"/><rect fill="#111820" x="549" y="391.9" width="366" height="24.65" shape-rendering="crispEdges"/><rect fill="#111820" x="915" y="391.9" width="24.4" height="24.65" shape-rendering="crispEdges"/><rect fill="#111820" x="939.4" y="391.9" width="12.2" height="24.65" shape-rendering="crispEdges"/><rect fill="#0b0f14" x="951.6" y="391.9" width="24.4" height="24.65" shape-rendering="crispEdges"/><rect fill="#0b0f14" x="0" y="416.3" width="24.4" height="24.65" shape-rendering="crispEdges"/><rect fill="#0b0f14" x="24.4" y="416.3" width="427" height="24.65" shape-rendering="crispEdges"/><rect fill="#0b0f14" x="451.4" y="416.3" width="24.4" height="24.65" shape-rendering="crispEdges"/><rect fill="#0b0f14" x="475.8" y="416.3" width="12.2" height="24.65" shape-rendering="crispEdges"/><rect fill="#0b0f14" x="488" y="416.3" width="24.4" height="24.65" shape-rendering="crispEdges"/><rect fill="#111820" x="512.4" y="416.3" width="12.2" height="24.65" shape-rendering="crispEdges"/><rect fill="#111820" x="524.6" y="416.3" width="414.8" height="24.65" shape-rendering="crispEdges"/><rect fill="#111820" x="939.4" y="416.3" width="12.2" height="24.65" shape-rendering="crispEdges"/><rect fill="#0b0f14" x="951.6" y="416.3" width="24.4" height="24.65" shape-rendering="crispEdges"/><rect fill="#0b0f14" x="0" y="440.7" width="24.4" height="24.65" shape-rendering="crispEdges"/><rect fill="#0b0f14" x="24.4" y="440.7" width="427" height="24.65" shape-rendering="crispEdges"/><rect fill="#0b0f14" x="451.4" y="440.7" width="24.4" height="24.65" shape-rendering="crispEdges"/><rect fill="#0b0f14" x="475.8" y="440.7" width="12.2" height="24.65" shape-rendering="crispEdges"/><rect fill="#0b0f14" x="488" y="440.7" width="24.4" height="24.65" shape-rendering="crispEdges"/><rect fill="#111820" x="512.4" y="440.7" width="12.2" height="24.65" shape-rendering="crispEdges"/><rect fill="#111820" x="524.6" y="440.7" width="414.8" height="24.65" shape-rendering="crispEdges"/><rect fill="#111820" x="939.4" y="440.7" width="12.2" height="24.65" shape-rendering="crispEdges"/><rect fill="#0b0f14" x="951.6" y="440.7" width="24.4" height="24.65" shape-rendering="crispEdges"/><rect fill="#0b0f14" x="0" y="465.1" width="24.4" height="24.65" shape-rendering="crispEdges"/><rect fill="#0b0f14" x="24.4" y="465.1" width="427" height="24.65" shape-rendering="crispEdges"/><rect fill="#0b0f14" x="451.4" y="465.1" width="24.4" height="24.65" shape-rendering="crispEdges"/><rect fill="#0b0f14" x="475.8" y="465.1" width="12.2" height="24.65" shape-rendering="crispEdges"/><rect fill="#0b0f14" x="488" y="465.1" width="24.4" height="24.65" shape-rendering="crispEdges"/><rect fill="#111820" x="512.4" y="465.1" width="12.2" height="24.65" shape-rendering="crispEdges"/><rect fill="#111820" x="524.6" y="465.1" width="24.4" height="24.65" shape-rendering="crispEdges"/><rect fill="#111820" x="549" y="465.1" width="48.8" height="24.65" shape-rendering="crispEdges"/><rect fill="#111820" x="597.8" y="465.1" width="317.2" height="24.65" shape-rendering="crispEdges"/><rect fill="#111820" x="915" y="465.1" width="24.4" height="24.65" shape-rendering="crispEdges"/><rect fill="#111820" x="939.4" y="465.1" width="12.2" height="24.65" shape-rendering="crispEdges"/><rect fill="#0b0f14" x="951.6" y="465.1" width="24.4" height="24.65" shape-rendering="crispEdges"/><rect fill="#0b0f14" x="0" y="489.5" width="24.4" height="24.65" shape-rendering="crispEdges"/><rect fill="#0b0f14" x="24.4" y="489.5" width="427" height="24.65" shape-rendering="crispEdges"/><rect fill="#0b0f14" x="451.4" y="489.5" width="24.4" height="24.65" shape-rendering="crispEdges"/><rect fill="#0b0f14" x="475.8" y="489.5" width="12.2" height="24.65" shape-rendering="crispEdges"/><rect fill="#0b0f14" x="488" y="489.5" width="24.4" height="24.65" shape-rendering="crispEdges"/><rect fill="#111820" x="512.4" y="489.5" width="12.2" height="24.65" shape-rendering="crispEdges"/><rect fill="#111820" x="524.6" y="489.5" width="24.4" height="24.65" shape-rendering="crispEdges"/><rect fill="#111820" x="549" y="489.5" width="366" height="24.65" shape-rendering="crispEdges"/><rect fill="#111820" x="915" y="489.5" width="24.4" height="24.65" shape-rendering="crispEdges"/><rect fill="#111820" x="939.4" y="489.5" width="12.2" height="24.65" shape-rendering="crispEdges"/><rect fill="#0b0f14" x="951.6" y="489.5" width="24.4" height="24.65" shape-rendering="crispEdges"/><rect fill="#0b0f14" x="0" y="513.9" width="475.8" height="24.65" shape-rendering="crispEdges"/><rect fill="#0b0f14" x="475.8" y="513.9" width="12.2" height="24.65" shape-rendering="crispEdges"/><rect fill="#0b0f14" x="488" y="513.9" width="24.4" height="24.65" shape-rendering="crispEdges"/><rect fill="#111820" x="512.4" y="513.9" width="12.2" height="24.65" shape-rendering="crispEdges"/><rect fill="#111820" x="524.6" y="513.9" width="414.8" height="24.65" shape-rendering="crispEdges"/><rect fill="#111820" x="939.4" y="513.9" width="12.2" height="24.65" shape-rendering="crispEdges"/><rect fill="#0b0f14" x="951.6" y="513.9" width="24.4" height="24.65" shape-rendering="crispEdges"/><rect fill="#111820" x="0" y="538.3" width="976" height="24.65" shape-rendering="crispEdges"/><rect fill="#111820" x="0" y="562.7" width="24.4" height="24.65" shape-rendering="crispEdges"/><rect fill="#111820" x="24.4" y="562.7" width="707.6" height="24.65" shape-rendering="crispEdges"/><rect fill="#111820" x="732" y="562.7" width="219.6" height="24.65" shape-rendering="crispEdges"/><rect fill="#111820" x="951.6" y="562.7" width="24.4" height="24.65" shape-rendering="crispEdges"/>
    <g class="terminal-SNAPSHOT-matrix">
    <text class="terminal-SNAPSHOT-r2" x="24.4" y="20" textLength="219.6" clip-path="url(#terminal-SNAPSHOT-line-0)">OpenLRC&#160;Mac&#160;&#160;0.4.1</text><text class="terminal-SNAPSHOT-r3" x="780.8" y="20" textLength="73.2" clip-path="url(#terminal-SNAPSHOT-line-0)">&#160;本地就绪&#160;</text><text class="terminal-SNAPSHOT-r1" x="976" y="20" textLength="12.2" clip-path="url(#terminal-SNAPSHOT-line-0)">
</text><text class="terminal-SNAPSHOT-r4" x="0" y="44.4" textLength="976" clip-path="url(#terminal-SNAPSHOT-line-1)">────────────────────────────────────────────────────────────────────────────────</text><text class="terminal-SNAPSHOT-r1" x="976" y="44.4" textLength="12.2" clip-path="url(#terminal-SNAPSHOT-line-1)">
</text><text class="terminal-SNAPSHOT-r5" x="475.8" y="68.8" textLength="12.2" clip-path="url(#terminal-SNAPSHOT-line-2)">│</text><text class="terminal-SNAPSHOT-r4" x="512.4" y="68.8" textLength="12.2" clip-path="url(#terminal-SNAPSHOT-line-2)">┌</text><text class="terminal-SNAPSHOT-r4" x="524.6" y="68.8" textLength="414.8" clip-path="url(#terminal-SNAPSHOT-line-2)">──────────────────────────────────</text><text class="terminal-SNAPSHOT-r4" x="939.4" y="68.8" textLength="12.2" clip-path="url(#terminal-SNAPSHOT-line-2)">┐</text><text class="terminal-SNAPSHOT-r1" x="976" y="68.8" textLength="12.2" clip-path="url(#terminal-SNAPSHOT-line-2)">
</text><text class="terminal-SNAPSHOT-r5" x="475.8" y="93.2" textLength="12.2" clip-path="url(#terminal-SNAPSHOT-line-3)">│</text><text class="terminal-SNAPSHOT-r6" x="512.4" y="93.2" textLength="12.2" clip-path="url(#terminal-SNAPSHOT-line-3)">│</text><text class="terminal-SNAPSHOT-r7" x="549" y="93.2" textLength="48.8" clip-path="url(#terminal-SNAPSHOT-line-3)">新建任务</text><text class="terminal-SNAPSHOT-r4" x="939.4" y="93.2" textLength="12.2" clip-path="url(#terminal-SNAPSHOT-line-3)">│</text><text class="terminal-SNAPSHOT-r1" x="976" y="93.2" textLength="12.2" clip-path="url(#terminal-SNAPSHOT-line-3)">
</text><text class="terminal-SNAPSHOT-r5" x="475.8" y="117.6" textLength="12.2" clip-path="url(#terminal-SNAPSHOT-line-4)">│</text><text class="terminal-SNAPSHOT-r6" x="512.4" y="117.6" textLength="12.2" clip-path="url(#terminal-SNAPSHOT-line-4)">│</text><text class="terminal-SNAPSHOT-r4" x="939.4" y="117.6" textLength="12.2" clip-path="url(#terminal-SNAPSHOT-line-4)">│</text><text class="terminal-SNAPSHOT-r1" x="976" y="117.6" textLength="12.2" clip-path="url(#terminal-SNAPSHOT-line-4)">
</text><text class="terminal-SNAPSHOT-r5" x="475.8" y="142" textLength="12.2" clip-path="url(#terminal-SNAPSHOT-line-5)">│</text><text class="terminal-SNAPSHOT-r4" x="512.4" y="142" textLength="12.2" clip-path="url(#terminal-SNAPSHOT-line-5)">└</text><text class="terminal-SNAPSHOT-r4" x="524.6" y="142" textLength="414.8" clip-path="url(#terminal-SNAPSHOT-line-5)">──────────────────────────────────</text><text class="terminal-SNAPSHOT-r4" x="939.4" y="142" textLength="12.2" clip-path="url(#terminal-SNAPSHOT-line-5)">┘</text><text class="terminal-SNAPSHOT-r1" x="976" y="142" textLength="12.2" clip-path="url(#terminal-SNAPSHOT-line-5)">
</text><text class="terminal-SNAPSHOT-r5" x="475.8" y="166.4" textLength="12.2" clip-path="url(#terminal-SNAPSHOT-line-6)">│</text><text class="terminal-SNAPSHOT-r5" x="512.4" y="166.4" textLength="12.2" clip-path="url(#terminal-SNAPSHOT-line-6)">┌</text><text class="terminal-SNAPSHOT-r5" x="524.6" y="166.4" textLength="414.8" clip-path="url(#terminal-SNAPSHOT-line-6)">──────────────────────────────────</text><text class="terminal-SNAPSHOT-r5" x="939.4" y="166.4" textLength="12.2" clip-path="url(#terminal-SNAPSHOT-line-6)">┐</text><text class="terminal-SNAPSHOT-r1" x="976" y="166.4" textLength="12.2" clip-path="url(#terminal-SNAPSHOT-line-6)">
</text><text class="terminal-SNAPSHOT-r5" x="475.8" y="190.8" textLength="12.2" clip-path="url(#terminal-SNAPSHOT-line-7)">│</text><text class="terminal-SNAPSHOT-r5" x="512.4" y="190.8" textLength="12.2" clip-path="url(#terminal-SNAPSHOT-line-7)">│</text><text class="terminal-SNAPSHOT-r8" x="549" y="190.8" textLength="48.8" clip-path="url(#terminal-SNAPSHOT-line-7)">编辑字幕</text><text class="terminal-SNAPSHOT-r5" x="939.4" y="190.8" textLength="12.2" clip-path="url(#terminal-SNAPSHOT-line-7)">│</text><text class="terminal-SNAPSHOT-r1" x="976" y="190.8" textLength="12.2" clip-path="url(#terminal-SNAPSHOT-line-7)">
</text><text class="terminal-SNAPSHOT-r5" x="475.8" y="215.2" textLength="12.2" clip-path="url(#terminal-SNAPSHOT-line-8)">│</text><text class="terminal-SNAPSHOT-r5" x="512.4" y="215.2" textLength="12.2" clip-path="url(#terminal-SNAPSHOT-line-8)">│</text><text class="terminal-SNAPSHOT-r9" x="549" y="215.2" textLength="48.8" clip-path="url(#terminal-SNAPSHOT-line-8)">稍后提供</text><text class="terminal-SNAPSHOT-r5" x="939.4" y="215.2" textLength="12.2" clip-path="url(#terminal-SNAPSHOT-line-8)">│</text><text class="terminal-SNAPSHOT-r1" x="976" y="215.2" textLength="12.2" clip-path="url(#terminal-SNAPSHOT-line-8)">
</text><text class="terminal-SNAPSHOT-r10" x="48.8" y="239.6" textLength="24.4" clip-path="url(#terminal-SNAPSHOT-line-9)">&#160;_</text><text class="terminal-SNAPSHOT-r11" x="73.2" y="239.6" textLength="12.2" clip-path="url(#terminal-SNAPSHOT-line-9)">_</text><text class="terminal-SNAPSHOT-r12" x="109.8" y="239.6" textLength="12.2" clip-path="url(#terminal-SNAPSHOT-line-9)">_</text><text class="terminal-SNAPSHOT-r13" x="122" y="239.6" textLength="12.2" clip-path="url(#terminal-SNAPSHOT-line-9)">_</text><text class="terminal-SNAPSHOT-r14" x="134.2" y="239.6" textLength="12.2" clip-path="url(#terminal-SNAPSHOT-line-9)">_</text><text class="terminal-SNAPSHOT-r10" x="146.4" y="239.6" textLength="280.6" clip-path="url(#terminal-SNAPSHOT-line-9)">&#160;&#160;___&#160;_&#160;&#160;_&#160;|&#160;&#160;___&#160;&#160;__&#160;&#160;</text><text class="terminal-SNAPSHOT-r5" x="475.8" y="239.6" textLength="12.2" clip-path="url(#terminal-SNAPSHOT-line-9)">│</text><text class="terminal-SNAPSHOT-r5" x="512.4" y="239.6" textLength="12.2" clip-path="url(#terminal-SNAPSHOT-line-9)">└</text><text class="terminal-SNAPSHOT-r5" x="524.6" y="239.6" textLength="414.8" clip-path="url(#terminal-SNAPSHOT-line-9)">──────────────────────────────────</text><text class="terminal-SNAPSHOT-r5" x="939.4" y="239.6" textLength="12.2" clip-path="url(#terminal-SNAPSHOT-line-9)">┘</text><text class="terminal-SNAPSHOT-r1" x="976" y="239.6" textLength="12.2" clip-path="url(#terminal-SNAPSHOT-line-9)">
</text><text class="terminal-SNAPSHOT-r10" x="48.8" y="264" textLength="36.6" clip-path="url(#terminal-SNAPSHOT-line-10)">/&#160;&#160;</text><text class="terminal-SNAPSHOT-r15" x="85.4" y="264" textLength="12.2" clip-path="url(#terminal-SNAPSHOT-line-10)">\</text><text class="terminal-SNAPSHOT-r12" x="109.8" y="264" textLength="12.2" clip-path="url(#terminal-SNAPSHOT-line-10)">|</text><text class="terminal-SNAPSHOT-r13" x="122" y="264" textLength="12.2" clip-path="url(#terminal-SNAPSHOT-line-10)">_</text><text class="terminal-SNAPSHOT-r14" x="134.2" y="264" textLength="12.2" clip-path="url(#terminal-SNAPSHOT-line-10)">_</text><text class="terminal-SNAPSHOT-r15" x="146.4" y="264" textLength="12.2" clip-path="url(#terminal-SNAPSHOT-line-10)">]</text><text class="terminal-SNAPSHOT-r10" x="158.6" y="264" textLength="268.4" clip-path="url(#terminal-SNAPSHOT-line-10)">&#160;|__&#160;|\&#160;|&#160;|&#160;&#160;|__]&#160;/&#160;&#160;`</text><text class="terminal-SNAPSHOT-r5" x="475.8" y="264" textLength="12.2" clip-path="url(#terminal-SNAPSHOT-line-10)">│</text><text class="terminal-SNAPSHOT-r4" x="512.4" y="264" textLength="12.2" clip-path="url(#terminal-SNAPSHOT-line-10)">┌</text><text class="terminal-SNAPSHOT-r4" x="524.6" y="264" textLength="414.8" clip-path="url(#terminal-SNAPSHOT-line-10)">──────────────────────────────────</text><text class="terminal-SNAPSHOT-r4" x="939.4" y="264" textLength="12.2" clip-path="url(#terminal-SNAPSHOT-line-10)">┐</text><text class="terminal-SNAPSHOT-r1" x="976" y="264" textLength="12.2" clip-path="url(#terminal-SNAPSHOT-line-10)">
</text><text class="terminal-SNAPSHOT-r10" x="48.8" y="288.4" textLength="24.4" clip-path="url(#terminal-SNAPSHOT-line-11)">\_</text><text class="terminal-SNAPSHOT-r11" x="73.2" y="288.4" textLength="12.2" clip-path="url(#terminal-SNAPSHOT-line-11)">_</text><text class="terminal-SNAPSHOT-r15" x="85.4" y="288.4" textLength="12.2" clip-path="url(#terminal-SNAPSHOT-line-11)">/</text><text class="terminal-SNAPSHOT-r12" x="109.8" y="288.4" textLength="12.2" clip-path="url(#terminal-SNAPSHOT-line-11)">|</text><text class="terminal-SNAPSHOT-r10" x="122" y="288.4" textLength="305" clip-path="url(#terminal-SNAPSHOT-line-11)">&#160;&#160;&#160;&#160;|__&#160;|&#160;\|&#160;|__|&#160;\_&#160;\__,</text><text class="terminal-SNAPSHOT-r5" x="475.8" y="288.4" textLength="12.2" clip-path="url(#terminal-SNAPSHOT-line-11)">│</text><text class="terminal-SNAPSHOT-r4" x="512.4" y="288.4" textLength="12.2" clip-path="url(#terminal-SNAPSHOT-line-11)">│</text><text class="terminal-SNAPSHOT-r2" x="549" y="288.4" textLength="61" clip-path="url(#terminal-SNAPSHOT-line-11)">任务与恢复</text><text class="terminal-SNAPSHOT-r4" x="939.4" y="288.4" textLength="12.2" clip-path="url(#terminal-SNAPSHOT-line-11)">│</text><text class="terminal-SNAPSHOT-r1" x="976" y="288.4" textLength="12.2" clip-path="url(#terminal-SNAPSHOT-line-11)">
</text><text class="terminal-SNAPSHOT-r5" x="475.8" y="312.8" textLength="12.2" clip-path="url(#terminal-SNAPSHOT-line-12)">│</text><text class="terminal-SNAPSHOT-r4" x="512.4" y="312.8" textLength="12.2" clip-path="url(#terminal-SNAPSHOT-line-12)">│</text><text class="terminal-SNAPSHOT-r4" x="939.4" y="312.8" textLength="12.2" clip-path="url(#terminal-SNAPSHOT-line-12)">│</text><text class="terminal-SNAPSHOT-r1" x="976" y="312.8" textLength="12.2" clip-path="url(#terminal-SNAPSHOT-line-12)">
</text><text class="terminal-SNAPSHOT-r16" x="134.2" y="337.2" textLength="97.6" clip-path="url(#terminal-SNAPSHOT-line-13)">本地字幕处理流程</text><text class="terminal-SNAPSHOT-r5" x="475.8" y="337.2" textLength="12.2" clip-path="url(#terminal-SNAPSHOT-line-13)">│</text><text class="terminal-SNAPSHOT-r4" x="512.4" y="337.2" textLength="12.2" clip-path="url(#terminal-SNAPSHOT-line-13)">└</text><text class="terminal-SNAPSHOT-r4" x="524.6" y="337.2" textLength="414.8" clip-path="url(#terminal-SNAPSHOT-line-13)">──────────────────────────────────</text><text class="terminal-SNAPSHOT-r4" x="939.4" y="337.2" textLength="12.2" clip-path="url(#terminal-SNAPSHOT-line-13)">┘</text><text class="terminal-SNAPSHOT-r1" x="976" y="337.2" textLength="12.2" clip-path="url(#terminal-SNAPSHOT-line-13)">
</text><text class="terminal-SNAPSHOT-r17" x="122" y="361.6" textLength="146.4" clip-path="url(#terminal-SNAPSHOT-line-14)">在&#160;Mac&#160;上转写与翻译</text><text class="terminal-SNAPSHOT-r5" x="475.8" y="361.6" textLength="12.2" clip-path="url(#terminal-SNAPSHOT-line-14)">│</text><text class="terminal-SNAPSHOT-r4" x="512.4" y="361.6" textLength="12.2" clip-path="url(#terminal-SNAPSHOT-line-14)">┌</text><text class="terminal-SNAPSHOT-r4" x="524.6" y="361.6" textLength="414.8" clip-path="url(#terminal-SNAPSHOT-line-14)">──────────────────────────────────</text><text class="terminal-SNAPSHOT-r4" x="939.4" y="361.6" textLength="12.2" clip-path="url(#terminal-SNAPSHOT-line-14)">┐</text><text class="terminal-SNAPSHOT-r1" x="976" y="361.6" textLength="12.2" clip-path="url(#terminal-SNAPSHOT-line-14)">
</text><text class="terminal-SNAPSHOT-r5" x="475.8" y="386" textLength="12.2" clip-path="url(#terminal-SNAPSHOT-line-15)">│</text><text class="terminal-SNAPSHOT-r4" x="512.4" y="386" textLength="12.2" clip-path="url(#terminal-SNAPSHOT-line-15)">│</text><text class="terminal-SNAPSHOT-r2" x="549" y="386" textLength="61" clip-path="url(#terminal-SNAPSHOT-line-15)">模型与安装</text><text class="terminal-SNAPSHOT-r4" x="939.4" y="386" textLength="12.2" clip-path="url(#terminal-SNAPSHOT-line-15)">│</text><text class="terminal-SNAPSHOT-r1" x="976" y="386" textLength="12.2" clip-path="url(#terminal-SNAPSHOT-line-15)">
</text><text class="terminal-SNAPSHOT-r5" x="475.8" y="410.4" textLength="12.2" clip-path="url(#terminal-SNAPSHOT-line-16)">│</text><text class="terminal-SNAPSHOT-r4" x="512.4" y="410.4" textLength="12.2" clip-path="url(#terminal-SNAPSHOT-line-16)">│</text><text class="terminal-SNAPSHOT-r4" x="939.4" y="410.4" textLength="12.2" clip-path="url(#terminal-SNAPSHOT-line-16)">│</text><text class="terminal-SNAPSHOT-r1" x="976" y="410.4" textLength="12.2" clip-path="url(#terminal-SNAPSHOT-line-16)">
</text><text class="terminal-SNAPSHOT-r5" x="475.8" y="434.8" textLength="12.2" clip-path="url(#terminal-SNAPSHOT-line-17)">│</text><text class="terminal-SNAPSHOT-r4" x="512.4" y="434.8" textLength="12.2" clip-path="url(#terminal-SNAPSHOT-line-17)">└</text><text class="terminal-SNAPSHOT-r4" x="524.6" y="434.8" textLength="414.8" clip-path="url(#terminal-SNAPSHOT-line-17)">──────────────────────────────────</text><text class="terminal-SNAPSHOT-r4" x="939.4" y="434.8" textLength="12.2" clip-path="url(#terminal-SNAPSHOT-line-17)">┘</text><text class="terminal-SNAPSHOT-r1" x="976" y="434.8" textLength="12.2" clip-path="url(#terminal-SNAPSHOT-line-17)">
</text><text class="terminal-SNAPSHOT-r5" x="475.8" y="459.2" textLength="12.2" clip-path="url(#terminal-SNAPSHOT-line-18)">│</text><text class="terminal-SNAPSHOT-r4" x="512.4" y="459.2" textLength="12.2" clip-path="url(#terminal-SNAPSHOT-line-18)">┌</text><text class="terminal-SNAPSHOT-r4" x="524.6" y="459.2" textLength="414.8" clip-path="url(#terminal-SNAPSHOT-line-18)">──────────────────────────────────</text><text class="terminal-SNAPSHOT-r4" x="939.4" y="459.2" textLength="12.2" clip-path="url(#terminal-SNAPSHOT-line-18)">┐</text><text class="terminal-SNAPSHOT-r1" x="976" y="459.2" textLength="12.2" clip-path="url(#terminal-SNAPSHOT-line-18)">
</text><text class="terminal-SNAPSHOT-r5" x="475.8" y="483.6" textLength="12.2" clip-path="url(#terminal-SNAPSHOT-line-19)">│</text><text class="terminal-SNAPSHOT-r4" x="512.4" y="483.6" textLength="12.2" clip-path="url(#terminal-SNAPSHOT-line-19)">│</text><text class="terminal-SNAPSHOT-r2" x="549" y="483.6" textLength="24.4" clip-path="url(#terminal-SNAPSHOT-line-19)">设置</text><text class="terminal-SNAPSHOT-r4" x="939.4" y="483.6" textLength="12.2" clip-path="url(#terminal-SNAPSHOT-line-19)">│</text><text class="terminal-SNAPSHOT-r1" x="976" y="483.6" textLength="12.2" clip-path="url(#terminal-SNAPSHOT-line-19)">
</text><text class="terminal-SNAPSHOT-r5" x="475.8" y="508" textLength="12.2" clip-path="url(#terminal-SNAPSHOT-line-20)">│</text><text class="terminal-SNAPSHOT-r4" x="512.4" y="508" textLength="12.2" clip-path="url(#terminal-SNAPSHOT-line-20)">│</text><text class="terminal-SNAPSHOT-r4" x="939.4" y="508" textLength="12.2" clip-path="url(#terminal-SNAPSHOT-line-20)">│</text><text class="terminal-SNAPSHOT-r1" x="976" y="508" textLength="12.2" clip-path="url(#terminal-SNAPSHOT-line-20)">
</text><text class="terminal-SNAPSHOT-r5" x="475.8" y="532.4" textLength="12.2" clip-path="url(#terminal-SNAPSHOT-line-21)">│</text><text class="terminal-SNAPSHOT-r4" x="512.4" y="532.4" textLength="12.2" clip-path="url(#terminal-SNAPSHOT-line-21)">└</text><text class="terminal-SNAPSHOT-r4" x="524.6" y="532.4" textLength="414.8" clip-path="url(#terminal-SNAPSHOT-line-21)">──────────────────────────────────</text><text class="terminal-SNAPSHOT-r4" x="939.4" y="532.4" textLength="12.2" clip-path="url(#terminal-SNAPSHOT-line-21)">┘</text><text class="terminal-SNAPSHOT-r1" x="976" y="532.4" textLength="12.2" clip-path="url(#terminal-SNAPSHOT-line-21)">
</text><text class="terminal-SNAPSHOT-r4" x="0" y="556.8" textLength="976" clip-path="url(#terminal-SNAPSHOT-line-22)">────────────────────────────────────────────────────────────────────────────────</text><text class="terminal-SNAPSHOT-r1" x="976" y="556.8" textLength="12.2" clip-path="url(#terminal-SNAPSHOT-line-22)">
</text><text class="terminal-SNAPSHOT-r18" x="24.4" y="581.2" textLength="585.6" clip-path="url(#terminal-SNAPSHOT-line-23)">[↑/↓]&#160;选择&#160;&#160;&#160;[ENTER]&#160;打开&#160;&#160;&#160;[D]&#160;检查&#160;&#160;&#160;[?]&#160;帮助&#160;&#160;&#160;[Q]&#160;退出</text>
    </g>
    </g>
</svg>
